# xmcd
#
# Track frame offsets: 
#        150
#        26066
#        42696
#        63815
#        82630
#        100831
#        125658
#        146187
#        168418
#
# Disc length: 2582 seconds
#
# Revision: 0
# Processed by: cddbd v1.5.2PL0 Copyright (c) Steve Scherf et al.
# Submitted via: ExactAudioCopyFreeDBPlugin 1.0
#
DISCID=770a1409
DTITLE=Kalo - Live In NYC
DYEAR=2016
DGENRE=Rock
TTITLE0=Oh Father
TTITLE1=Looking For Me
TTITLE2=Treat Me Bad
TTITLE3=Dear John
TTITLE4=Down Down Down
TTITLE5=Blue Chevy
TTITLE6=Flesh and Bones
TTITLE7=March to the Light
TTITLE8=Isabel
EXTD=
EXTT0=
EXTT1=
EXTT2=
EXTT3=
EXTT4=
EXTT5=
EXTT6=
EXTT7=
EXTT8=
PLAYORDER=
